<svg xmlns="http://www.w3.org/2000/svg" viewBox="0 0 121.75 163.44"><defs><style>.cls-1{fill:#002d74;}.cls-2{fill:#fff;}.cls-3{fill:#0f9bd7;}.cls-4{fill:#00a0df;}.cls-5{fill:#4dbde9;}.cls-6{fill:#a6def4;}.cls-7{fill:#80d0ef;}</style></defs><g id="Layer_2" data-name="Layer 2"><g id="Layer_1-2" data-name="Layer 1"><path class="cls-1" d="M121.75,0H0V90.39c0,35.2,20.59,60.32,59.55,72.65l1.3.4,1.35-.4c39-12.32,59.55-37.44,59.55-72.65ZM61.1,159.53l-.25.06-.19-.06c-37.29-11.79-57-35.71-56.92-69.14V3.67H118.08V90.39C118.09,123.83,98.39,147.74,61.1,159.53Z"/><path class="cls-2" d="M3.74,3.67V90.39c-.06,33.43,19.63,57.35,56.92,69.14l.19.06.25-.06c37.29-11.79,57-35.7,57-69.14V3.67ZM114.4,89.33c0,32.05-18.11,54.91-52.39,66.13l-1.16.41-1.17-.41C25.41,144.24,7.3,121.37,7.3,89.33v-82H114.4Z"/><polygon class="cls-3" points="89.81 81.77 89.8 81.77 89.81 81.78 89.81 81.77"/><path class="cls-3" d="M48.1,57.55v0h0Z"/><path class="cls-3" d="M37.29,142.4h0l0,0Z"/><path class="cls-4" d="M89.8,81.77a90.41,90.41,0,0,0-41.7-24.2l5.95,44.75Z"/><path class="cls-5" d="M28.9,116.78l25.15-14.46L48.1,57.57h0L23,98.84Z"/><path class="cls-4" d="M48.09,57.57a86.75,86.75,0,0,0-10.08-2A81.14,81.14,0,0,0,9.26,56.81h0L23,98.84Z"/><polygon class="cls-5" points="58.15 133.2 75.38 125.61 89.81 81.78 89.8 81.77 54.05 102.32 58.15 133.2"/><path class="cls-4" d="M109.15,110.72h0A92.25,92.25,0,0,0,89.81,81.78L75.38,125.61Z"/><path class="cls-6" d="M37.31,142.4a94.74,94.74,0,0,0,23.34,11.08l.21.06h0L58.15,133.2Z"/><path class="cls-7" d="M58.15,133.2l2.71,20.34.19-.06c2-.66,4-1.36,5.84-2.09l8.49-25.78Z"/><path class="cls-5" d="M109.15,110.72,75.38,125.61l-8.49,25.78C88.79,142.88,103.1,129.06,109.15,110.72Z"/><path class="cls-7" d="M23,98.84l-9.23,15.21a58.67,58.67,0,0,0,4.42,8.87l10.69-6.14Z"/><path class="cls-7" d="M54.05,102.32,28.9,116.78l8.39,25.6,0,0,20.84-9.2Z"/><path class="cls-5" d="M9.26,56.82V89a67.14,67.14,0,0,0,4.53,25L23,98.84Z"/><path class="cls-6" d="M18.21,122.92a63.2,63.2,0,0,0,19.08,19.46l-8.39-25.6Z"/><path class="cls-4" d="M89.8,81.77a90.41,90.41,0,0,0-41.7-24.2l5.95,44.75Z"/><path class="cls-5" d="M28.9,116.78l25.15-14.46L48.1,57.57h0L23,98.84Z"/><path class="cls-4" d="M48.09,57.57a86.75,86.75,0,0,0-10.08-2A81.14,81.14,0,0,0,9.26,56.81h0L23,98.84Z"/><polygon class="cls-5" points="58.15 133.2 75.38 125.61 89.81 81.78 89.8 81.77 54.05 102.32 58.15 133.2"/><path class="cls-4" d="M109.15,110.72h0A92.25,92.25,0,0,0,89.81,81.78L75.38,125.61Z"/><path class="cls-6" d="M37.31,142.4a94.74,94.74,0,0,0,23.34,11.08l.21.06h0L58.15,133.2Z"/><path class="cls-7" d="M58.15,133.2l2.71,20.34.19-.06c2-.66,4-1.36,5.84-2.09l8.49-25.78Z"/><path class="cls-5" d="M109.15,110.72,75.38,125.61l-8.49,25.78C88.79,142.88,103.1,129.06,109.15,110.72Z"/><path class="cls-7" d="M23,98.84l-9.23,15.21a58.67,58.67,0,0,0,4.42,8.87l10.69-6.14Z"/><path class="cls-7" d="M54.05,102.32,28.9,116.78l8.39,25.6,0,0,20.84-9.2Z"/><path class="cls-5" d="M9.26,56.82V89a67.14,67.14,0,0,0,4.53,25L23,98.84Z"/><path class="cls-6" d="M18.21,122.92a63.2,63.2,0,0,0,19.08,19.46l-8.39-25.6Z"/><path class="cls-1" d="M7.3,7.34v82c0,32,18.11,54.91,52.38,66.13l1.17.41,1.16-.41c34.28-11.22,52.39-34.08,52.39-66.13v-82ZM61.05,153.48l-.19.06-.21-.06C27,142.49,9.26,120.2,9.26,89V56.81A81.14,81.14,0,0,1,38,55.59c32.24,4.32,59.1,26.47,71.14,55.12C102.58,130.64,86.28,145.23,61.05,153.48Z"/><path class="cls-2" d="M71.19,16.42c0,.51.37.64.94.79,2,.47,2.25,1.22,2.25,2.83V37.59c0,1.6-.21,2.36-2.25,2.83-.57.15-.93.27-.94.78v.88h10V41.2c0-.51-.38-.63-.94-.78C78.2,40,78,39.19,78,37.59V20c0-1.61.21-2.36,2.25-2.83.56-.15.93-.27.94-.79v-.87h-10Z"/><path class="cls-2" d="M20.78,21V37.57c0,1.61.18,2.36,2.08,2.83.53.14.86.27.87.8v.86H15.51V41.2c0-.53.35-.66.88-.8,1.89-.47,2.08-1.22,2.08-2.83V20c0-1.61-.19-2.36-2.08-2.84-.53-.14-.87-.27-.88-.78v-.87h5a1.73,1.73,0,0,1,1.66.93l14.69,18.2c0-.1,0-14.64,0-14.64,0-1.61-.18-2.36-2.07-2.84-.54-.14-.88-.27-.88-.78v-.87h8.26v.87c0,.51-.35.64-.88.78-1.89.48-2.08,1.23-2.08,2.84v22h-.45c-.69,0-1.08-.52-1.6-1.2Z"/><path class="cls-2" d="M68.17,40.42c-1.26-.27-1.91-1.24-2.63-2.78,0,0-9-22.56-9-22.6l-1,.07c-.42.06-.85.09-1.44,1.26,0,0-8.42,21.28-8.42,21.28a5,5,0,0,1-3.35,2.77c-.58.1-.95.26-.95.78v.86h9.71V41.2c0-.52-.65-.59-1.2-.78-2-.72-1.79-1.77-1.45-2.84l1.86-4.5h9.42c.06.15,1.94,4.52,1.94,4.52.34,1.06,1.06,2.1-1,2.82-.55.19-1.2.26-1.2.78v.86h9.67V41.2C69.12,40.68,68.75,40.52,68.17,40.42ZM51.05,31c.19-.48,4.1-9.66,4.11-9.66S58.7,30.5,58.91,31Z"/><path class="cls-2" d="M83.37,15.55v6.32h.72c.48,0,.64-.35.82-.94.6-2.11,1.5-2.71,3-2.68h4.86V37.57c0,1.61-.58,2.36-2.61,2.83-.57.14-.93.27-.94.8v.86h10.91V41.2c0-.53-.38-.66-.94-.8-2-.47-2.61-1.22-2.61-2.83V18.25h4.85c1.51,0,2.4.57,3,2.68.18.59.33.93.83.94h.77V15.55Z"/></g></g></svg>